<?xml version="1.0" encoding="UTF-8"?>
<!DOCTYPE svg PUBLIC "-//W3C//DTD SVG 1.1//EN" "http://www.w3.org/Graphics/SVG/1.1/DTD/svg11.dtd">
<!-- Creator: CorelDRAW 2017 -->
<svg xmlns="http://www.w3.org/2000/svg" xml:space="preserve" width="14.548mm" height="14.548mm" version="1.1" shape-rendering="geometricPrecision" text-rendering="geometricPrecision" image-rendering="optimizeQuality" fill-rule="evenodd" clip-rule="evenodd"
viewBox="0 0 1455 1455"
 xmlns:xlink="http://www.w3.org/1999/xlink">
 <g id="Camada_x0020_1">
  <metadata id="CorelCorpID_0Corel-Layer"/>
  <path fill="#4966AE" fill-rule="nonzero" d="M101 1354m1253 0l-227 0 0 -308 -799 0 0 308 -227 0 0 -627c0,-91 14,-175 47,-252 32,-77 75,-143 131,-199 56,-56 122,-98 199,-129 77,-32 159,-47 251,-47l512 0c16,0 30,2 45,9 14,5 25,13 36,23 11,11 20,23 25,38 5,14 9,29 9,45l0 1139zm-1026 -535l799 0 0 -491 -399 0c-7,0 -21,0 -45,2 -21,4 -48,7 -77,16 -30,7 -61,20 -93,38 -34,16 -63,39 -91,70 -27,30 -50,66 -68,111 -16,45 -25,98 -25,163l0 91z"/>
 </g>
</svg>
