<?xml version="1.0" encoding="UTF-8"?>
<!DOCTYPE svg PUBLIC "-//W3C//DTD SVG 1.1//EN" "http://www.w3.org/Graphics/SVG/1.1/DTD/svg11.dtd">
<!-- Creator: CorelDRAW 2017 -->
<svg xmlns="http://www.w3.org/2000/svg" xml:space="preserve" width="14.548mm" height="14.548mm" version="1.1" shape-rendering="geometricPrecision" text-rendering="geometricPrecision" image-rendering="optimizeQuality" fill-rule="evenodd" clip-rule="evenodd"
viewBox="0 0 1455 1455"
 xmlns:xlink="http://www.w3.org/1999/xlink">
 <g id="Camada_x0020_1">
  <metadata id="CorelCorpID_0Corel-Layer"/>
  <g id="_2427166926496">
   <path fill="#4966AE" d="M727 0c402,0 727,326 727,727 0,402 -326,727 -727,727 -402,0 -727,-326 -727,-727 0,-402 326,-727 727,-727z"/>
   <path fill="#FEFEFE" d="M345 597l765 0c23,0 41,18 41,41l0 178c0,23 -18,41 -41,41l-765 0c-23,0 -41,-18 -41,-41l0 -178c0,-23 18,-41 41,-41z"/>
   <path fill="#4966AE" d="M727 0c402,0 727,326 727,727 0,402 -326,727 -727,727 -402,0 -727,-326 -727,-727 0,-402 326,-727 727,-727z"/>
   <path fill="#FEFEFE" d="M345 597l765 0c23,0 41,18 41,41l0 178c0,23 -18,41 -41,41l-765 0c-23,0 -41,-18 -41,-41l0 -178c0,-23 18,-41 41,-41z"/>
  </g>
 </g>
</svg>
