<?xml version="1.0" encoding="UTF-8"?>
<!DOCTYPE svg PUBLIC "-//W3C//DTD SVG 1.1//EN" "http://www.w3.org/Graphics/SVG/1.1/DTD/svg11.dtd">
<!-- Creator: CorelDRAW 2017 -->
<svg xmlns="http://www.w3.org/2000/svg" xml:space="preserve" width="46.323mm" height="49.129mm" version="1.1" shape-rendering="geometricPrecision" text-rendering="geometricPrecision" image-rendering="optimizeQuality" fill-rule="evenodd" clip-rule="evenodd"
viewBox="0 0 4632 4913"
 xmlns:xlink="http://www.w3.org/1999/xlink">
 <g id="Camada_x0020_1">
  <metadata id="CorelCorpID_0Corel-Layer"/>
  <g id="_2920556804848">
   <polygon fill="#FEFEFE" points="758,1288 931,1288 931,3678 758,3678 "/>
   <polygon fill="#FEFEFE" points="1657,1288 1830,1288 1830,3678 1657,3678 "/>
   <polygon fill="#FEFEFE" points="235,3794 235,3622 931,3622 931,3794 "/>
   <polygon fill="#FEFEFE" points="5,3621 250,3622 1417,4789 1295,4911 "/>
   <polygon fill="#FEFEFE" points="1657,3794 1657,3622 2351,3622 2351,3794 "/>
   <polygon fill="#FEFEFE" points="2585,3621 2340,3622 1173,4789 1295,4911 "/>
   <polygon fill="#FEFEFE" points="3883,3622 3711,3622 3711,1202 3883,1202 "/>
   <polygon fill="#FEFEFE" points="2985,3622 2812,3622 2812,1202 2985,1202 "/>
   <polygon fill="#FEFEFE" points="4407,1115 4407,1288 3711,1288 3711,1115 "/>
   <polygon fill="#FEFEFE" points="4637,1289 4392,1288 3225,121 3347,-2 "/>
   <polygon fill="#FEFEFE" points="2985,1115 2985,1288 2291,1288 2291,1115 "/>
   <polygon fill="#FEFEFE" points="2057,1289 2302,1288 3469,121 3347,-2 "/>
  </g>
 </g>
</svg>
