<?xml version="1.0" encoding="UTF-8"?>
<!DOCTYPE svg PUBLIC "-//W3C//DTD SVG 1.1//EN" "http://www.w3.org/Graphics/SVG/1.1/DTD/svg11.dtd">
<!-- Creator: CorelDRAW 2017 -->
<svg xmlns="http://www.w3.org/2000/svg" xml:space="preserve" width="102.945mm" height="102.945mm" version="1.1" style="shape-rendering:geometricPrecision; text-rendering:geometricPrecision; image-rendering:optimizeQuality; fill-rule:evenodd; clip-rule:evenodd"
viewBox="0 0 10294 10294"
 xmlns:xlink="http://www.w3.org/1999/xlink">
 <defs>
  <style type="text/css">
   <![CDATA[
    .fil3 {fill:#373435}
    .fil2 {fill:#DC3338}
    .fil0 {fill:#373435;fill-rule:nonzero}
    .fil1 {fill:#DC3338;fill-rule:nonzero}
   ]]>
  </style>
 </defs>
 <g id="Camada_x0020_1">
  <metadata id="CorelCorpID_0Corel-Layer"/>
  <path class="fil0" d="M1268 5738l244 -728 -155 0 -181 540 -111 -540 -180 0 152 728 231 0zm-797 -728l-244 728 146 0 244 -728 -146 0zm1469 0l734 0 -20 61 -575 0 -182 543 641 0 -42 124 -800 0 244 -728zm1427 0l159 0 -244 728 -159 0 244 -728zm719 0l166 0c-3,7 -5,15 -7,22 -116,347 -110,619 215,619 109,0 214,-33 342,-78l8 139c-139,44 -254,63 -392,63 -432,0 -484,-312 -340,-741 3,-8 5,-16 8,-24zm1259 0l983 0 -244 728 -159 0 223 -665 -665 0 -223 665 -159 0 244 -728zm1410 0l734 0 -20 61 -575 0 -182 543 641 0 -42 124 -800 0 244 -728zm1092 0l166 0c-3,7 -5,15 -7,22 -116,347 -110,619 215,619 109,0 214,-33 342,-78l8 139c-139,44 -254,63 -392,63 -432,0 -484,-312 -340,-741 3,-8 5,-16 8,-24zm1259 0l296 0 469 728 -183 0 -439 -680 -228 680 -159 0 244 -728z"/>
  <path class="fil1" d="M1512 5010l229 -682 -155 0 -229 682 155 0zm-447 0l-140 -682 -227 0 -229 682 146 0 166 -495 103 495 180 0zm8337 0l-296 0 229 -682 159 0 -215 641 840 -641 174 0 -892 682 0 0zm-1390 0l-166 0c134,-382 388,-706 838,-706 122,0 230,17 325,52l-101 139c-78,-39 -160,-68 -265,-68 -335,0 -520,265 -631,582zm-523 0l-734 0 229 -682 780 0 -42 124 -621 0 -166 495 575 0 -21 63zm-1162 0l-983 0 229 -682 159 0 -208 619 665 0 208 -619 159 0 -229 682zm-2077 0l-166 0c134,-382 388,-706 838,-706 122,0 230,17 325,52l-101 139c-78,-39 -160,-68 -265,-68 -335,0 -520,265 -631,582zm-726 0l-159 0 186 -556 -416 0 42 -126 994 0 -42 126 -418 0 -186 556zm-852 0l-734 0 229 -682 780 0 -42 124 -621 0 -166 495 575 0 -21 63z"/>
  <polygon class="fil2" points="1658,4576 1516,4536 1696,4004 1579,3962 1878,3688 1950,4089 1835,4050 "/>
  <polygon class="fil3" points="299,5520 432,5557 258,6091 371,6130 72,6404 0,6004 121,6046 "/>
 </g>
</svg>
