<?xml version="1.0" encoding="UTF-8"?>
<!DOCTYPE svg PUBLIC "-//W3C//DTD SVG 1.1//EN" "http://www.w3.org/Graphics/SVG/1.1/DTD/svg11.dtd">
<!-- Creator: CorelDRAW 2017 -->
<svg xmlns="http://www.w3.org/2000/svg" xml:space="preserve" width="14.548mm" height="14.548mm" version="1.1" shape-rendering="geometricPrecision" text-rendering="geometricPrecision" image-rendering="optimizeQuality" fill-rule="evenodd" clip-rule="evenodd"
viewBox="0 0 1455 1455"
 xmlns:xlink="http://www.w3.org/1999/xlink">
 <g id="Camada_x0020_1">
  <metadata id="CorelCorpID_0Corel-Layer"/>
  <path fill="#4966AE" fill-rule="nonzero" d="M74 1354m1253 -833c0,52 -7,98 -20,140 -13,39 -30,77 -52,107 -21,30 -48,57 -77,81 -27,21 -57,39 -90,54 -30,14 -63,25 -93,32 -32,5 -63,9 -90,9l475 410 -351 0 -475 -410 -163 0 0 -227 514 0c29,-2 54,-9 77,-18 25,-9 45,-23 63,-39 16,-16 30,-36 39,-59 9,-23 14,-48 14,-79l0 -143c0,-13 -2,-23 -5,-29 -4,-7 -7,-13 -13,-16 -5,-2 -11,-5 -16,-5 -5,0 -11,0 -14,0l-750 0 0 1026 -227 0 0 -1139c0,-16 2,-30 9,-45 5,-14 13,-27 23,-38 11,-11 23,-18 36,-23 14,-7 30,-9 47,-9l863 0c50,0 93,9 127,27 36,18 64,41 86,70 21,27 38,57 47,90 11,32 16,61 16,90l0 145z"/>
 </g>
</svg>
